HIERARCHY
ROOT Hips
{
	OFFSET 56.681702 10.372190 57.909302
	CHANNELS 6 Xposition Yposition Zposition Xrotation Yrotation Zrotation
	JOINT spine
	{
		OFFSET 0.000000 -0.393701 6.846367
		CHANNELS 3 Xrotation Yrotation Zrotation
		JOINT spine1
		{
			OFFSET 0.000000 -0.000002 9.496208
			CHANNELS 3 Xrotation Yrotation Zrotation
			JOINT spine2
			{
				OFFSET 0.000000 -0.000001 9.099091
				CHANNELS 3 Xrotation Yrotation Zrotation
				JOINT Neck
				{
					OFFSET 0.000000 -1.113784 23.361198
					CHANNELS 3 Xrotation Yrotation Zrotation
					JOINT Head
					{
						OFFSET 0.000000 -0.000001 7.058022
						CHANNELS 3 Xrotation Yrotation Zrotation
						End Site
						{
							OFFSET 0.000000 5.634188 17.084396
						}
					}
				}
				JOINT RightShoulder
				{
					OFFSET -3.831360 0.533489 9.826309
					CHANNELS 3 Xrotation Yrotation Zrotation
					JOINT RightArm
					{
						OFFSET 0.000000 -0.000002 12.888100
						CHANNELS 3 Xrotation Yrotation Zrotation
						JOINT RightArmRoll
						{
							OFFSET 0.000000 -0.000001 6.506172
							CHANNELS 3 Xrotation Yrotation Zrotation
							JOINT RightForeArm
							{
								OFFSET 0.000000 -0.000003 18.950104
								CHANNELS 3 Xrotation Yrotation Zrotation
								JOINT RightForeArmRoll
								{
									OFFSET 0.000000 -0.000002 7.300934
									CHANNELS 3 Xrotation Yrotation Zrotation
									JOINT RightHand
									{
										OFFSET 0.000000 -0.000002 14.651398
										CHANNELS 3 Xrotation Yrotation Zrotation
										End Site
										{
											OFFSET 0.000000 0.000000 0.100006
										}
									}
								}
							}
						}
					}
				}
				JOINT LeftShoulder
				{
					OFFSET 3.831360 0.533489 9.826309
					CHANNELS 3 Xrotation Yrotation Zrotation
					JOINT LeftArm
					{
						OFFSET 0.000000 -0.000002 12.888100
						CHANNELS 3 Xrotation Yrotation Zrotation
						JOINT LeftArmRoll
						{
							OFFSET 0.000000 -0.000001 6.506172
							CHANNELS 3 Xrotation Yrotation Zrotation
							JOINT LeftForeArm
							{
								OFFSET 0.000000 -0.000003 18.950104
								CHANNELS 3 Xrotation Yrotation Zrotation
								JOINT LeftForeArmRoll
								{
									OFFSET 0.000000 -0.000002 7.300934
									CHANNELS 3 Xrotation Yrotation Zrotation
									JOINT LeftHand
									{
										OFFSET 0.000000 -0.000002 14.651398
										CHANNELS 3 Xrotation Yrotation Zrotation
										End Site
										{
											OFFSET 0.000000 0.000000 0.100006
										}
									}
								}
							}
						}
					}
				}
			}
		}
	}
	JOINT RightUpLeg
	{
		OFFSET -6.068371 0.933477 -1.112782
		CHANNELS 3 Xrotation Yrotation Zrotation
		JOINT RightUpLegRoll
		{
			OFFSET 0.000000 -0.000003 17.179600
			CHANNELS 3 Xrotation Yrotation Zrotation
			JOINT RightLeg
			{
				OFFSET 0.000000 0.000004 -21.274300
				CHANNELS 3 Xrotation Yrotation Zrotation
				JOINT RightLegRoll
				{
					OFFSET 0.000000 -0.000004 21.343903
					CHANNELS 3 Xrotation Yrotation Zrotation
					JOINT RightFoot
					{
						OFFSET 0.000000 -0.000003 17.765198
						CHANNELS 3 Xrotation Yrotation Zrotation
						JOINT RightToeBase
						{
							OFFSET 0.000000 -0.000002 14.850800
							CHANNELS 3 Xrotation Yrotation Zrotation
							End Site
							{
								OFFSET 0.006294 0.829003 7.192139
							}
						}
					}
				}
			}
		}
	}
	JOINT LeftUpLeg
	{
		OFFSET 6.068371 0.933477 -1.112782
		CHANNELS 3 Xrotation Yrotation Zrotation
		JOINT LeftUpLegRoll
		{
			OFFSET 0.000000 -0.000003 17.179699
			CHANNELS 3 Xrotation Yrotation Zrotation
			JOINT LeftLeg
			{
				OFFSET 0.000000 -0.000003 21.274200
				CHANNELS 3 Xrotation Yrotation Zrotation
				JOINT LeftLegRoll
				{
					OFFSET 0.000000 -0.000004 21.541199
					CHANNELS 3 Xrotation Yrotation Zrotation
					JOINT LeftFoot
					{
						OFFSET 0.000000 -0.000003 17.567894
						CHANNELS 3 Xrotation Yrotation Zrotation
						JOINT LeftToeBase
						{
							OFFSET 0.000000 -0.000002 14.850800
							CHANNELS 3 Xrotation Yrotation Zrotation
							End Site
							{
								OFFSET -0.028210 0.829003 7.192139
							}
						}
					}
				}
			}
		}
	}
}
MOTION
Frames: 13
Frame Time: 0.041667
57.609795 -31.396601 91.747314 -4.177305 -1.153209 -1.248292 -1.593888 0.029228 -0.055627 0.804648 0.059359 -0.113124 2.449721 0.058027 -0.114144 27.852680 3.309434 -0.009163 -7.984876 -0.661771 0.167258 17.343689 -67.614454 18.274499 -67.298393 -111.254629 -73.070224 -0.000001 -0.000004 0.000004 28.115106 -17.884120 4.014096 -0.000010 -0.000006 -2.999993 -5.000331 -7.998952 0.000189 11.161461 67.990264 -11.375266 -69.260174 119.405490 63.772903 -0.000013 0.000003 0.000006 12.234317 21.303806 -2.137901 0.000001 -0.000003 3.005190 -5.000156 7.999422 -0.000122 -0.034177 -174.302999 2.379484 -179.999991 0.000005 -1.119995 172.950731 -2.560527 -0.375514 0.000004 0.000001 0.085705 69.186681 6.902744 2.096205 25.456959 -7.355615 0.000001 3.664825 176.739669 0.534806 -0.000005 -0.000005 -1.184550 -5.354688 1.292855 0.210771 -0.000003 0.000002 -0.042745 68.730138 -6.937220 -2.033681 25.456959 7.355613 -0.000001 
57.623596 -31.390711 91.763611 -4.138100 -1.141278 -1.259595 -1.594609 0.028945 -0.056490 0.803959 0.058684 -0.114252 2.449031 0.057331 -0.115243 27.877339 3.312904 -0.005953 -8.015670 -0.674013 0.171484 17.461017 -67.632130 18.399789 -67.254947 -111.212480 -72.901211 -0.000001 -0.000003 0.000001 27.867235 -17.900883 3.980671 -0.000013 -0.000007 -2.999990 -5.000335 -7.998953 0.000188 11.125156 67.957561 -11.340744 -69.174592 119.326929 63.614736 -0.000013 0.000001 0.000007 12.062048 21.301108 -2.110989 -0.000002 -0.000006 3.005188 -5.000157 7.999421 -0.000122 -0.080154 -174.327997 2.351577 -179.999991 0.000005 -1.119996 172.963435 -2.548680 -0.374488 0.000004 0.000001 0.085325 69.173670 6.903034 2.096169 25.456955 -7.355616 0.000002 3.566668 176.721350 0.536819 -0.000005 -0.000004 -1.184350 -5.441587 1.286518 0.214694 -0.000004 0.000001 -0.045939 68.772587 -6.936370 -2.032758 25.456957 7.355615 -0.000001 
57.615295 -31.373308 91.758011 -4.098626 -1.129146 -1.271166 -1.595481 0.028701 -0.057422 0.803013 0.058072 -0.115479 2.448081 0.056698 -0.116441 27.902084 3.315917 -0.002603 -8.046855 -0.686282 0.175831 17.581168 -67.650346 18.528083 -67.212210 -111.169204 -72.734165 -0.000002 -0.000004 0.000001 27.620739 -17.918754 3.947818 -0.000010 -0.000007 -2.999990 -5.000335 -7.998951 0.000189 11.086936 67.923574 -11.304320 -69.084570 119.248382 63.450593 -0.000015 0.000002 0.000006 11.888454 21.297730 -2.083748 0.000001 -0.000003 3.005191 -5.000155 7.999422 -0.000122 -0.126230 -174.354020 2.321240 -179.999991 0.000005 -1.119995 172.976180 -2.534852 -0.373208 0.000004 0.000001 0.084938 69.160897 6.903401 2.095931 25.456959 -7.355615 0.000002 3.465186 176.702035 0.539352 -0.000005 -0.000004 -1.184160 -5.534025 1.279480 0.218821 -0.000004 0.000001 -0.049360 68.818295 -6.935421 -2.031913 25.456959 7.355614 -0.000001 
57.588497 -31.359804 91.761307 -4.058952 -1.116892 -1.282930 -1.596436 0.028485 -0.058401 0.801888 0.057504 -0.116776 2.446961 0.056108 -0.117709 27.926919 3.318597 0.000862 -8.078285 -0.698573 0.180257 17.703224 -67.668699 18.658403 -67.169603 -111.125238 -72.568103 -0.000002 -0.000004 0.000001 27.375111 -17.937364 3.915274 -0.000012 -0.000005 -2.999989 -5.000337 -7.998950 0.000188 11.047370 67.888570 -11.266561 -68.993653 119.169452 63.284845 -0.000014 0.000002 0.000006 11.713876 21.293830 -2.056269 0.000001 -0.000005 3.005190 -5.000158 7.999422 -0.000122 -0.172369 -174.382024 2.289244 -179.999991 0.000005 -1.118999 172.988939 -2.519045 -0.371690 0.000004 0.000001 0.084547 69.148323 6.903705 2.095673 25.456957 -7.355616 0.000002 3.361383 176.682691 0.542319 -0.000005 -0.000004 -1.183970 -5.630343 1.271937 0.223079 -0.000004 0.000001 -0.052938 68.866229 -6.934479 -2.030932 25.456960 7.355616 -0.000001 
57.562695 -31.342207 91.755310 -4.019170 -1.104578 -1.294816 -1.597459 0.028285 -0.059406 0.800660 0.056961 -0.118113 2.445731 0.055542 -0.119016 27.951748 3.321107 0.004384 -8.109878 -0.710879 0.184724 17.826468 -67.687141 18.790016 -67.126710 -111.080753 -72.402300 -0.000001 -0.000004 0.000001 27.130019 -17.956598 3.882958 -0.000010 -0.000007 -2.999992 -5.000335 -7.998949 0.000189 11.007144 67.853094 -11.228155 -68.898598 119.090960 63.114158 -0.000013 0.000001 0.000006 11.538752 21.289566 -2.028653 0.000002 -0.000004 3.005191 -5.000155 7.999419 -0.000124 -0.218554 -174.410042 2.256309 -179.999991 0.000005 -1.118998 173.001698 -2.502247 -0.370059 0.000004 0.000001 0.084153 69.135755 6.904039 2.095517 25.456957 -7.355614 0.000002 3.256251 176.663376 0.545563 -0.000005 -0.000004 -1.183800 -5.728880 1.264097 0.227400 -0.000004 0.000002 -0.056608 68.915523 -6.933487 -2.029957 25.456955 7.355615 -0.000000 
57.568195 -31.327703 91.759308 -3.979367 -1.092261 -1.306738 -1.598489 0.028088 -0.060419 0.799408 0.056425 -0.119460 2.444471 0.054983 -0.120334 27.976677 3.323569 0.007920 -8.141501 -0.723192 0.189190 17.950220 -67.705568 18.922158 -67.083072 -111.036261 -72.235883 0.000001 -0.000004 0.000003 26.885042 -17.975887 3.850568 -0.000008 -0.000006 -2.999989 -5.000335 -7.998951 0.000190 10.966868 67.817522 -11.189697 -68.804621 119.012071 62.944831 -0.000013 0.000002 0.000006 11.363434 21.285321 -2.001034 -0.000000 -0.000004 3.005190 -5.000159 7.999419 -0.000123 -0.264745 -174.438059 2.223179 -179.999991 0.000005 -1.118998 173.014456 -2.485433 -0.368432 0.000004 0.000001 0.083758 69.123283 6.904375 2.095156 25.456960 -7.355614 0.000002 3.150781 176.644074 0.548934 -0.000005 -0.000004 -1.183620 -5.827977 1.256176 0.231715 -0.000004 0.000001 -0.060300 68.965042 -6.932522 -2.028973 25.456957 7.355613 -0.000001 
57.558697 -31.313700 91.757004 -3.939610 -1.079993 -1.318632 -1.599500 0.027885 -0.061418 0.798205 0.055876 -0.120789 2.443270 0.054411 -0.121632 28.001508 3.326128 0.011418 -8.173056 -0.735506 0.193617 18.073577 -67.723737 19.053911 -67.038423 -110.992022 -72.068277 0.000001 -0.000004 0.000001 26.639613 -17.995045 3.817902 -0.000012 -0.000007 -2.999992 -5.000338 -7.998952 0.000190 10.927098 67.782114 -11.151757 -68.708561 118.933715 62.773537 -0.000012 0.000002 0.000006 11.188478 21.281148 -1.973545 0.000000 -0.000004 3.005192 -5.000158 7.999422 -0.000122 -0.310914 -174.466076 2.190575 -179.999991 0.000004 -1.118999 173.027229 -2.468632 -0.366828 0.000004 0.000001 0.083365 69.110723 6.904703 2.095002 25.456957 -7.355617 0.000003 3.045969 176.624771 0.552273 -0.000005 -0.000005 -1.183440 -5.925962 1.248386 0.235961 -0.000004 0.000001 -0.063946 69.014048 -6.931536 -2.027920 25.456962 7.355614 -0.000001 
57.544197 -31.290007 91.754410 -3.900001 -1.067852 -1.330414 -1.600430 0.027661 -0.062382 0.797132 0.055296 -0.122065 2.442201 0.053808 -0.122880 28.026346 3.328914 0.014842 -8.204422 -0.747812 0.197963 18.195844 -67.741557 19.184509 -66.992141 -110.948254 -71.898464 0.000001 -0.000005 0.000001 26.393581 -18.013726 3.784890 -0.000012 -0.000007 -2.999991 -5.000335 -7.998952 0.000187 10.888469 67.747431 -11.114955 -68.613936 118.855346 62.604667 -0.000016 0.000002 0.000006 11.014231 21.277527 -1.946315 0.000004 -0.000002 3.005190 -5.000157 7.999419 -0.000122 -0.357027 -174.493097 2.159246 -179.999991 0.000006 -1.118001 173.039974 -2.452807 -0.365337 0.000004 0.000001 0.082975 69.098060 6.905054 2.094757 25.456959 -7.355617 0.000001 2.942819 176.605469 0.555425 -0.000005 -0.000004 -1.183260 -6.021178 1.240938 0.240076 -0.000004 0.000001 -0.067480 69.061388 -6.930616 -2.026984 25.456960 7.355613 -0.000000 
57.542797 -31.277716 91.757111 -3.860606 -1.055889 -1.342010 -1.601249 0.027405 -0.063294 0.796263 0.054665 -0.123263 2.441331 0.053156 -0.124047 28.051001 3.332084 0.018141 -8.235489 -0.760105 0.202189 18.316190 -67.758898 19.313094 -66.943743 -110.905251 -71.725647 0.000001 -0.000003 0.000001 26.146456 -18.031537 3.751266 -0.000013 -0.000005 -2.999991 -5.000332 -7.998951 0.000187 10.851556 67.713751 -11.079872 -68.519392 118.777700 62.436938 -0.000011 0.000001 0.000006 10.841022 21.274525 -1.919394 0.000001 -0.000003 3.005190 -5.000162 7.999420 -0.000122 -0.403056 -174.519133 2.129921 -179.999991 0.000005 -1.118001 173.052678 -2.439977 -0.364221 0.000004 0.000001 0.082590 69.085171 6.905393 2.094622 25.456959 -7.355615 0.000002 2.842310 176.586194 0.558230 -0.000005 -0.000004 -1.183060 -6.111954 1.234048 0.243999 -0.000004 0.000001 -0.070832 69.106099 -6.929714 -2.026118 25.456957 7.355615 -0.000000 
57.527897 -31.264112 91.754005 -3.821515 -1.044154 -1.353343 -1.601909 0.027106 -0.064130 0.795677 0.053965 -0.124351 2.440741 0.052437 -0.125106 28.075571 3.335776 0.021265 -8.266136 -0.772376 0.206255 18.433922 -67.775632 19.438916 -66.893165 -110.863464 -71.549401 0.000001 -0.000004 0.000002 25.897844 -18.048065 3.716851 -0.000010 -0.000007 -2.999992 -5.000332 -7.998949 0.000188 10.816935 67.681533 -11.047070 -68.426666 118.700382 62.272713 -0.000012 0.000001 0.000007 10.669432 21.272319 -1.892946 -0.000002 -0.000003 3.005194 -5.000159 7.999420 -0.000122 -0.448967 -174.544173 2.103340 -179.999991 0.000005 -1.118001 173.065369 -2.429127 -0.363351 0.000004 0.000001 0.082212 69.072166 6.905686 2.094488 25.456959 -7.355615 0.000002 2.745450 176.567931 0.560577 -0.000005 -0.000005 -1.182850 -6.196619 1.227926 0.247670 -0.000004 0.000001 -0.073936 69.147257 -6.928900 -2.025193 25.456957 7.355615 -0.000001 
57.533096 -31.249403 91.756302 -3.782814 -1.032726 -1.364338 -1.602378 0.026751 -0.064872 0.795448 0.053176 -0.125298 2.440510 0.051631 -0.126024 28.099951 3.340114 0.024163 -8.296261 -0.784616 0.210123 18.548062 -67.791478 19.560955 -66.839384 -110.823173 -71.368312 0.000001 -0.000005 0.000002 25.647321 -18.063178 3.681556 -0.000010 -0.000006 -2.999993 -5.000334 -7.998952 0.000189 10.785243 67.651152 -11.017189 -68.334397 118.624130 62.110708 -0.000013 0.000002 0.000006 10.499775 21.271383 -1.867077 0.000000 -0.000002 3.005190 -5.000148 7.999422 -0.000123 -0.494735 -174.566207 2.080198 -179.999991 0.000005 -1.117004 173.078018 -2.422235 -0.361972 0.000004 0.000001 0.081844 69.058752 6.906022 2.094487 25.456957 -7.355615 0.000002 2.653225 176.549694 0.562255 -0.000005 -0.000004 -1.182620 -6.273535 1.222786 0.251034 -0.000004 0.000002 -0.076723 69.183806 -6.928202 -2.024375 25.456960 7.355615 -0.000000 
57.547695 -31.234705 91.756516 -3.744585 -1.021655 -1.374922 -1.602599 0.026329 -0.065500 0.795656 0.052279 -0.126076 2.440721 0.050720 -0.126772 28.124067 3.345253 0.026800 -8.325738 -0.796821 0.213751 18.657994 -67.806498 19.678526 -66.782530 -110.784576 -71.182203 0.000000 -0.000005 0.000002 25.394491 -18.076362 3.645141 -0.000014 -0.000008 -2.999991 -5.000332 -7.998951 0.000190 10.756970 67.622964 -10.990721 -68.246110 118.548315 61.955280 -0.000012 0.000002 0.000007 10.332483 21.271702 -1.841847 -0.000001 -0.000003 3.005190 -5.000157 7.999422 -0.000122 -0.540326 -174.585250 2.061249 -179.999991 0.000005 -1.117004 173.090613 -2.419330 -0.361079 0.000004 0.000001 0.081485 69.044927 6.906329 2.094607 25.456957 -7.355616 0.000002 2.566634 176.532468 0.563143 -0.000005 -0.000005 -1.182360 -6.341012 1.218840 0.254035 -0.000004 0.000001 -0.079126 69.214890 -6.927551 -2.023711 25.456962 7.355614 -0.000001 
57.544197 -31.220110 91.756905 -3.706908 -1.011001 -1.385007 -1.602539 0.025827 -0.065992 0.796378 0.051256 -0.126654 2.441441 0.049685 -0.127321 28.147911 3.351316 0.029118 -8.354467 -0.808980 0.217100 18.762798 -67.820404 19.790688 -66.721830 -110.748136 -70.989940 0.000001 -0.000003 -0.000000 25.138989 -18.087278 3.607475 -0.000012 -0.000008 -2.999993 -5.000331 -7.998953 0.000188 10.732766 67.597440 -10.968303 -68.162078 118.473183 61.807044 -0.000012 0.000001 0.000007 10.167963 21.273659 -1.817388 0.000001 -0.000001 3.005190 -5.000153 7.999424 -0.000122 -0.585712 -174.601273 2.047220 -179.999991 0.000004 -1.115993 173.103153 -2.422364 -0.360910 0.000004 0.000001 0.081140 69.030762 6.906619 2.094744 25.456959 -7.355615 0.000001 2.486673 176.515283 0.563034 -0.000005 -0.000004 -1.182070 -6.397399 1.216311 0.256617 -0.000005 0.000002 -0.081076 69.239554 -6.927030 -2.023071 25.456959 7.355614 -0.000001 
